<?xml version="1.0"?>
<svg width="48.937" height="48.937" xmlns="http://www.w3.org/2000/svg" xmlns:svg="http://www.w3.org/2000/svg" xmlns:xlink="http://www.w3.org/1999/xlink" version="1.1" xml:space="preserve">
 <g class="layer">
  <title>Layer 1</title>
  <use id="svg_14" transform="matrix(1.02921 0 0 0.993326 -0.314297 34.3895)" x="-24.57" xlink:href="#svg_13" y="-34.34"/>
 </g>
 <defs>
  <symbol height="48.94" id="svg_13" version="1.1" width="48.94" xml:space="preserve" xmlns="http://www.w3.org/2000/svg" xmlns:svg="http://www.w3.org/2000/svg">
   <g class="layer">
    <title>Layer 1</title>
    <g id="svg_7">
     <g id="svg_8">
      <ellipse cx="49.02" cy="35.25" id="svg_12" rx="2.5" ry="1"/>
      <circle cx="42.23" cy="29.12" id="svg_11" r="2.25"/>
      <circle cx="55.81" cy="29.12" id="svg_10" r="2.25"/>
      <path d="m69.15,24.67c1.24,-1.01 2.1,-2.94 1.75,-6.52c0,0 -0.84,-11.49 -8.67,-10.33c0,0 -2.44,-7.72 -17.78,-4.87c-0.87,-1.02 -2.41,-2.19 -5.15,-2.7c0,0 0.84,1.72 0.96,3.59c-2.15,0.14 -15.33,1.67 -13.03,16.98c0,0 0.21,2.98 1.66,4.49l0,3.22c-0.85,1.12 -1.37,2.55 -1.37,4.1c0,2.96 1.88,5.48 4.46,6.29c3.26,6.24 9.81,10.27 17.07,10.27c7.27,0 13.82,-4.04 17.08,-10.3c2.54,-0.83 4.39,-3.32 4.39,-6.27c0,-1.55 -0.52,-2.97 -1.37,-4.1l0,-3.85l0,0zm-4.87,10.52c-0.29,0 -0.56,-0.07 -0.82,-0.19c-2.04,5.92 -7.71,10.19 -14.41,10.19c-6.7,0 -12.38,-4.28 -14.41,-10.2c-0.27,0.13 -0.56,0.2 -0.87,0.2c-1.25,0 -2.25,-1.15 -2.25,-2.56c0,-1.42 1,-2.57 2.25,-2.57c0.02,0 0.04,0.01 0.06,0.01c0.01,-0.58 0.05,-1.27 0.12,-1.98c1.52,-0.44 3.22,-2.12 4.33,-4.48c0.33,-0.71 0.57,-1.42 0.74,-2.11c0.48,1.04 1.45,2.34 3.38,2.99c0,0 -0.17,-4.67 1.83,-5.67c0,0 2.17,2.5 1.83,4c0,0 5.14,-1.72 6.23,-4.39c-0.26,0.69 -0.79,2.59 0.27,4.06c0,0 1.5,-3.17 2.83,-3.5c0,0 1.78,3.46 4.7,5.27c1.12,2.05 2.67,3.48 4.07,3.84c0.06,0.72 0.11,1.39 0.11,1.96c0,0 0.01,0 0.01,0c1.24,0 2.24,1.15 2.24,2.57c0,1.41 -1,2.56 -2.24,2.56z" id="svg_9"/>
     </g>
    </g>
   </g>
  </symbol>
 </defs>
</svg>