<svg xmlns="http://www.w3.org/2000/svg" xmlns:xlink="http://www.w3.org/1999/xlink" version="1.1" x="0px" y="0px" viewBox="0 0 64 80" enable-background="new 0 0 64 64" xml:space="preserve"><g display="none"><rect x="-10.5" y="-84.759" display="inline" fill="#000000" width="787" height="375.042"/></g><g display="none"><circle display="inline" cx="32" cy="5.203" r="5.203"/><path display="inline" d="M37.808,12.485H26.192c-4.096,0-7.43,3.334-7.43,7.43v14.569c0,1.492,1.21,2.702,2.702,2.702   c1.492,0,2.702-1.21,2.702-2.702V21.416h1.621v12.319c0,0.006-0.002,0.011-0.002,0.017v27.546c0,1.492,1.21,2.702,2.702,2.702   c1.492,0,2.702-1.21,2.702-2.702v-22.16h1.621v22.16c0,1.492,1.21,2.702,2.702,2.702s2.702-1.21,2.702-2.702v-22.16v-5.385V21.416   h1.622v13.067c0,1.492,1.21,2.702,2.702,2.702c1.492,0,2.702-1.21,2.702-2.702V19.915C45.238,15.818,41.904,12.485,37.808,12.485z"/></g><g display="none"><circle display="inline" cx="32" cy="5.203" r="5.203"/><path display="inline" d="M37.808,12.485H26.192c-4.096,0-7.43,3.334-7.43,7.43v14.569c0,1.492,1.21,2.702,2.702,2.702   c1.492,0,2.702-1.21,2.702-2.702V21.416h1.621v12.319c0,0.006-0.002,0.011-0.002,0.017v27.546c0,1.492,1.21,2.702,2.702,2.702   c1.492,0,2.702-1.21,2.702-2.702v-22.16h1.621v22.16c0,1.492,1.21,2.702,2.702,2.702s2.702-1.21,2.702-2.702v-22.16v-5.385V21.416   h1.622v13.067c0,1.492,1.21,2.702,2.702,2.702c1.492,0,2.702-1.21,2.702-2.702V19.915C45.238,15.818,41.904,12.485,37.808,12.485z"/></g><g display="none"><g display="inline"><g><path d="M31.995,2c2.553,0,4.622,2.086,4.622,4.659c0,2.573-2.069,4.659-4.622,4.659c-2.553,0-4.622-2.086-4.622-4.659     C27.373,4.086,29.442,2,31.995,2 M31.995,0c-3.651,0-6.622,2.987-6.622,6.659c0,3.672,2.971,6.659,6.622,6.659     s6.622-2.987,6.622-6.659C38.617,2.987,35.646,0,31.995,0L31.995,0z"/></g><g><path d="M37.155,15.867c3.639,0,6.6,2.985,6.6,6.653v13.047c0,1.336-1.075,2.419-2.4,2.419c-1.325,0-2.4-1.083-2.4-2.419V23.865     h-1.441v11.048v4.823v19.845c0,1.336-1.075,2.419-2.4,2.419c-1.325,0-2.4-1.083-2.4-2.419V39.735h-1.44v19.845     c0,1.336-1.075,2.419-2.4,2.419s-2.4-1.083-2.4-2.419V34.913c0-0.005,0.002-0.01,0.002-0.015V23.865h-1.44v11.702     c0,1.336-1.075,2.419-2.4,2.419s-2.4-1.083-2.4-2.419V22.52c0-3.668,2.961-6.653,6.6-6.653H37.155 M37.155,13.867h-10.32     c-4.742,0-8.6,3.882-8.6,8.653v13.047c0,2.437,1.974,4.419,4.4,4.419c0.656,0,1.279-0.145,1.839-0.405v19.999     c0,2.437,1.974,4.419,4.4,4.419c1.218,0,2.323-0.5,3.12-1.306C32.791,63.5,33.896,64,35.114,64c2.426,0,4.4-1.983,4.4-4.419     V39.735v-0.154c0.56,0.26,1.184,0.406,1.841,0.406c2.426,0,4.4-1.983,4.4-4.419V22.52C45.755,17.749,41.897,13.867,37.155,13.867     L37.155,13.867z"/></g></g></g><g display="none"><g display="inline"><ellipse fill="#000000" cx="31.995" cy="6.659" rx="5.622" ry="5.659"/><g><path d="M31.995,2c2.553,0,4.622,2.086,4.622,4.659c0,2.573-2.069,4.659-4.622,4.659c-2.553,0-4.622-2.086-4.622-4.659     C27.373,4.086,29.442,2,31.995,2 M31.995,0c-3.651,0-6.622,2.987-6.622,6.659c0,3.672,2.971,6.659,6.622,6.659     s6.622-2.987,6.622-6.659C38.617,2.987,35.646,0,31.995,0L31.995,0z"/></g></g><g display="inline"><path fill="#000000" d="M35.114,63c-1.396,0-2.597-0.85-3.12-2.061C31.47,62.151,30.269,63,28.874,63c-1.875,0-3.4-1.534-3.4-3.42    V37.448c-0.609,0.927-1.654,1.539-2.839,1.539c-1.875,0-3.4-1.534-3.4-3.419V22.521c0-4.22,3.409-7.653,7.6-7.653h10.32    c4.19,0,7.6,3.434,7.6,7.653v13.047c0,1.885-1.525,3.419-3.399,3.419c-1.187,0-2.232-0.613-2.841-1.542V59.58    C38.514,61.466,36.989,63,35.114,63z"/><g><path d="M37.155,15.867c3.639,0,6.6,2.985,6.6,6.653v13.047c0,1.336-1.075,2.419-2.4,2.419c-1.325,0-2.4-1.083-2.4-2.419V23.865     h-1.441v11.048v4.823v19.845c0,1.336-1.075,2.419-2.4,2.419c-1.325,0-2.4-1.083-2.4-2.419V39.735h-1.44v19.845     c0,1.336-1.075,2.419-2.4,2.419s-2.4-1.083-2.4-2.419V34.913c0-0.005,0.002-0.01,0.002-0.015V23.865h-1.44v11.702     c0,1.336-1.075,2.419-2.4,2.419s-2.4-1.083-2.4-2.419V22.52c0-3.668,2.961-6.653,6.6-6.653H37.155 M37.155,13.867h-10.32     c-4.742,0-8.6,3.882-8.6,8.653v13.047c0,2.437,1.974,4.419,4.4,4.419c0.656,0,1.279-0.145,1.839-0.405v19.999     c0,2.437,1.974,4.419,4.4,4.419c1.218,0,2.323-0.5,3.12-1.306C32.791,63.5,33.896,64,35.114,64c2.426,0,4.4-1.983,4.4-4.419     V39.735v-0.154c0.56,0.26,1.184,0.406,1.841,0.406c2.426,0,4.4-1.983,4.4-4.419V22.52C45.755,17.749,41.897,13.867,37.155,13.867     L37.155,13.867z"/></g></g></g><g display="none"><g display="inline"><g><ellipse fill="#000000" cx="31.995" cy="6.659" rx="5.622" ry="5.659"/></g><g><g><path d="M31.995,2c2.553,0,4.622,2.086,4.622,4.659c0,2.573-2.069,4.659-4.622,4.659c-2.553,0-4.622-2.086-4.622-4.659      C27.373,4.086,29.442,2,31.995,2 M31.995,0c-3.651,0-6.622,2.987-6.622,6.659c0,3.672,2.971,6.659,6.622,6.659      s6.622-2.987,6.622-6.659C38.617,2.987,35.646,0,31.995,0L31.995,0z"/></g></g></g><g display="inline"><g><path fill="#000000" d="M35.114,63c-1.396,0-2.597-0.85-3.12-2.061C31.47,62.151,30.269,63,28.874,63     c-1.875,0-3.4-1.534-3.4-3.42V37.448c-0.609,0.927-1.654,1.539-2.839,1.539c-1.875,0-3.4-1.534-3.4-3.419V22.521     c0-4.22,3.409-7.653,7.6-7.653h10.32c4.19,0,7.6,3.434,7.6,7.653v13.047c0,1.885-1.525,3.419-3.399,3.419     c-1.187,0-2.232-0.613-2.841-1.542V59.58C38.514,61.466,36.989,63,35.114,63z"/></g><g><g><path d="M37.155,15.867c3.639,0,6.6,2.985,6.6,6.653v13.047c0,1.336-1.075,2.419-2.4,2.419c-1.325,0-2.4-1.083-2.4-2.419V23.865      h-1.441v11.048v4.823v19.845c0,1.336-1.075,2.419-2.4,2.419c-1.325,0-2.4-1.083-2.4-2.419V39.735h-1.44v19.845      c0,1.336-1.075,2.419-2.4,2.419s-2.4-1.083-2.4-2.419V34.913c0-0.005,0.002-0.01,0.002-0.015V23.865h-1.44v11.702      c0,1.336-1.075,2.419-2.4,2.419s-2.4-1.083-2.4-2.419V22.52c0-3.668,2.961-6.653,6.6-6.653H37.155 M37.155,13.867h-10.32      c-4.742,0-8.6,3.882-8.6,8.653v13.047c0,2.437,1.974,4.419,4.4,4.419c0.656,0,1.279-0.145,1.839-0.405v19.999      c0,2.437,1.974,4.419,4.4,4.419c1.218,0,2.323-0.5,3.12-1.306C32.791,63.5,33.896,64,35.114,64c2.426,0,4.4-1.983,4.4-4.419      V39.735v-0.154c0.56,0.26,1.184,0.406,1.841,0.406c2.426,0,4.4-1.983,4.4-4.419V22.52      C45.755,17.749,41.897,13.867,37.155,13.867L37.155,13.867z"/></g></g></g></g><g><circle cx="32" cy="5.202" r="5.203"/><path d="M18.762,19.915v14.569c0,1.492,1.21,2.702,2.702,2.702s2.702-1.21,2.702-2.702V21.416h1.621v12.319   c0,0.006-0.002,0.011-0.002,0.017v27.546c0,1.492,1.21,2.702,2.702,2.702c1.492,0,2.702-1.21,2.702-2.702v-22.16h1.621v22.16   c0,1.492,1.21,2.702,2.702,2.702c1.492,0,2.702-1.21,2.702-2.702v-22.16v-5.385V21.416h1.622v13.067   c0,1.492,1.21,2.702,2.702,2.702c1.492,0,2.702-1.21,2.702-2.702V19.915c0-4.096-3.334-7.43-7.43-7.43H26.192   C22.096,12.485,18.762,15.818,18.762,19.915z"/></g>
</svg>