<svg id="Layer_1" data-name="Layer 1" xmlns="http://www.w3.org/2000/svg" viewBox="0 0 1133.63 1111.32"><defs><style>.cls-1{fill:#f5bd1f;}.cls-1,.cls-2,.cls-3{fill-rule:evenodd;}.cls-2{fill:#ae150d;}.cls-3{fill:#45a529;}.cls-4{font-size:80.77px;font-family:Century;}</style></defs><path class="cls-1" d="M538.19,377.78c47.41,0,86.09-11.57,86.09-26s-38.68-26-86.09-26-86.09,11.57-86.09,26,38.69,26,86.09,26Z"/><path class="cls-2" d="M629.78,353.17c0,17.44-43.42,31.47-97.09,31.47s-97.09-14-97.09-31.47a97.09,97.09,0,1,0,194.18,0Z"/><path class="cls-3" d="M542.25,239.55c-12.24-5.81-24.67-11.68-36.32-10.41-11.71,1.45-22.77,9.8-31.74,18.91s-15.61,18.85-24.5,24.85-19.8,8.1-30.83,10.28c12.3,5.93,24.55,12.05,38.16,15.15s28.76,3.25,42.68-1.35c14.11-4.54,27.05-13.71,34-22.05s8.71-17.31,9.58-24.54a75.86,75.86,0,0,0-29.41,5.27c-9.29,3.74-18.29,11.32-24.26,16.72a151.27,151.27,0,0,0-11.74,11.78c5.69-8,11.38-16.05,18.55-23a84.71,84.71,0,0,1,23.71-16.29c8-3.35,15.09-4.43,22.16-5.33Z"/><path class="cls-3" d="M549.75,232.42c3.8-8,7.64-16.14,6.81-23.77s-6.41-14.9-12.37-20.77-12.34-10.22-16.27-16-5.3-13-6.72-20.18c-3.89,8.06-7.89,16.07-9.92,25s-2.13,18.82.88,27.93,9,17.71,14.44,22.23,11.33,5.7,16,6.27a49.49,49.49,0,0,0-3.45-19.25c-2.44-6.08-7.4-12-10.94-15.88a97.64,97.64,0,0,0-7.71-7.68c5.25,3.72,10.51,7.44,15.05,12.14a55.27,55.27,0,0,1,10.66,15.52,51.94,51.94,0,0,1,3.49,14.5Z"/><path class="cls-3" d="M816.17,479.71l-.28-7.75-.65-7.73c-.33-5.16-1.22-10.26-1.88-15.38-.35-2.56-.92-5.08-1.37-7.62s-.88-5.09-1.55-7.59a240.5,240.5,0,0,0-37.23-84.3c-3-4.15-6-8.37-9.27-12.31-1.64-2-3.16-4.06-4.89-6L754,325.3c-27.7-30.31-63.12-53.49-102.06-66-4.83-1.69-9.78-2.94-14.7-4.29-1.23-.36-2.47-.65-3.72-.91l-3.74-.83-3.74-.82c-1.24-.29-2.49-.55-3.75-.74-5-.82-10-1.79-15.12-2.27-2.54-.28-5.06-.64-7.6-.84l-7.63-.5a234.15,234.15,0,0,0-60.71,4.42,233.5,233.5,0,0,1,60.63-3.16l7.57.65c2.52.25,5,.67,7.53,1,5,.58,10,1.65,15,2.57,1.25.21,2.48.5,3.71.81l3.69.89,3.69.89c1.23.28,2.45.6,3.66,1,4.85,1.45,9.72,2.78,14.46,4.55a234,234,0,0,1,99.11,67l4.87,5.75c1.66,1.89,3.1,4,4.66,5.92,3.14,3.92,5.92,8.11,8.8,12.22A233.61,233.61,0,0,1,803,435.23c.6,2.42.9,4.91,1.34,7.37s.89,4.92,1.18,7.4c.53,5,1.29,9.91,1.5,14.9l.48,7.48.11,7.48.06,3.74c0,1.25-.08,2.5-.12,3.74l-.26,7.48c-.1,2.49-.4,5-.59,7.45s-.35,5-.75,7.44c-.7,4.93-1.27,9.88-2.31,14.76a231.66,231.66,0,0,1-7.34,28.9l-2.47,7c-.42,1.16-.79,2.35-1.26,3.5l-1.41,3.45c-1,2.3-1.84,4.62-2.83,6.89L785.23,581c-.54,1.12-1,2.26-1.6,3.36l-1.73,3.29c-1.17,2.19-2.29,4.41-3.49,6.58l-3.78,6.41c-.64,1.06-1.23,2.15-1.91,3.19l-2,3.11A234.45,234.45,0,0,1,753,630.8c-3.31,3.68-6.48,7.5-10,11-1.74,1.76-3.42,3.58-5.21,5.28l-5.43,5.06c-1.77,1.73-3.7,3.28-5.58,4.89s-3.73,3.25-5.69,4.75c-3.93,3-7.78,6.1-11.9,8.83a225.85,225.85,0,0,1-80.62,35.54A221,221,0,0,1,570,711.41c-4.91-.07-9.79-.6-14.67-1-2.45-.14-4.87-.59-7.3-.9s-4.86-.6-7.27-1.06c-4.8-1-9.65-1.68-14.38-3-2.38-.58-4.76-1.13-7.13-1.74l-7-2.08-3.51-1-3.46-1.22L498.33,697l-6.79-2.76-3.39-1.38c-1.13-.46-2.22-1-3.33-1.53l-6.64-3.1c-2.19-1.06-4.32-2.26-6.49-3.39-4.36-2.18-8.49-4.8-12.69-7.27-58.32-34.22-39.88-80.25-5.58-87.47,12.18-2.57,40.53,2,70-10.64,13.66-5.88,26.74-15.36,38.31-27.5a139.66,139.66,0,0,0,27.68-42.09c6.26-15.17,8.92-30.53,12.9-42.48A70.78,70.78,0,0,1,618,439.69c6.63-7.2,14.79-13.27,10.24-14.22-4.36-1-21.43,3.22-33.19,12.33-11.57,9.1-17.82,23.13-26.17,39.82-8.53,16.5-19,35.46-34.51,48.16-15.74,12.71-36.6,19-54,18.59-17.26-.38-31.1-7.21-37.93-15.36-7-8.16-7-17.64-2.84-31.86s12.51-33.37,15.74-46.84c3-13.65.94-21.81-1.14-27.3s-4.36-8.35-6.83-10.43c-2.46-2.28-4.93-3.8-5.5.94-.76,4.74.57,15.55-6.45,27.5-7.2,12-22.75,25-35.08,36.22-12.51,11-21.8,20.1-29.58,33.56a114.16,114.16,0,0,0-14.79,52c-3,81.32,89.25,129.75,107.14,138.59,2.37,1.17,4.7,2.41,7.1,3.51l7.24,3.21c1.21.52,2.4,1.09,3.63,1.57l3.69,1.42,7.4,2.82,7.51,2.46,3.76,1.23,3.82,1,7.62,2.08c2.56.61,5.14,1.15,7.71,1.72,5.13,1.25,10.36,1.94,15.54,2.85,2.59.43,5.22.65,7.83,1s5.22.69,7.85.81c5.25.33,10.49.78,15.75.75A256,256,0,0,0,601,726.42a251.43,251.43,0,0,0,31-5.56,239.76,239.76,0,0,0,84.87-39.49c4.29-3,8.3-6.35,12.37-9.6,2-1.63,3.94-3.43,5.91-5.13s3.94-3.42,5.78-5.28l5.61-5.45c1.85-1.83,3.58-3.79,5.37-5.68,3.64-3.73,6.9-7.81,10.3-11.76A245.68,245.68,0,0,0,780.27,613l2.07-3.31c.69-1.1,1.29-2.26,1.94-3.38l3.82-6.8c1.21-2.3,2.34-4.65,3.51-7l1.75-3.48c.57-1.17,1.06-2.37,1.59-3.56l3.14-7.13c1-2.4,1.88-4.85,2.82-7.27l1.39-3.63c.47-1.22.83-2.47,1.25-3.69l2.42-7.4a242.39,242.39,0,0,0,7-30.3c1-5.09,1.47-10.25,2.08-15.39.36-2.57.42-5.17.62-7.75s.4-5.16.45-7.74l.12-7.77c0-1.29.06-2.58,0-3.87Z"/><text class="cls-4" transform="translate(326.6 870.82)">JUNIOR JOY</text></svg>