<svg id="Layer_1" data-name="Layer 1" xmlns="http://www.w3.org/2000/svg" viewBox="0 0 1133.63 1111.32"><defs><style>.cls-1,.cls-4{fill:#b3cc23;}.cls-1,.cls-2{stroke:#231f20;stroke-miterlimit:10;}.cls-1{stroke-width:13.46px;}.cls-2{fill:none;stroke-linecap:round;stroke-width:22.88px;}.cls-3{fill:#231f20;}.cls-5{font-size:90.19px;font-family:Century;}</style></defs><path class="cls-1" d="M577.59,425.67h0a0,0,0,0,1,0,0v0A123.67,123.67,0,0,1,453.93,549.34h0a0,0,0,0,1,0,0v0A123.67,123.67,0,0,1,577.59,425.67Z" transform="translate(28.25 1003.27) rotate(-90)"/><path class="cls-1" d="M577.59,425.67h0A123.67,123.67,0,0,1,701.26,549.34v0a0,0,0,0,1,0,0h0A123.67,123.67,0,0,1,577.59,425.67v0A0,0,0,0,1,577.59,425.67Z" transform="translate(151.92 1126.94) rotate(-90)"/><path class="cls-2" d="M634.83,197.27V340.36c0,26.34-25.62,47.69-57.24,47.69h0c-31.61,0-57.23-21.35-57.23-47.69V197.27"/><path class="cls-3" d="M589,197.27l-5.72,369.57-.36,23.1c-.08,3.89-.07,7.59-.27,11.74,0,1-.11,2-.21,3l-.27,3c-.26,2-.53,4-.87,6a102.1,102.1,0,0,1-7,23.19,99.89,99.89,0,0,1-29.23,37.83,98.18,98.18,0,0,1-66.89,21.29,96.57,96.57,0,0,1-23.32-4.14,95,95,0,0,1-21.56-9.61,97.38,97.38,0,0,1-33.07-32.83,95,95,0,0,1-9.65-21.26,93.45,93.45,0,0,1-4.21-22.87c-.05-1-.14-1.94-.16-2.91l0-2.9c0-1.95,0-3.86,0-5.79l.18-11.55.36-23.1.36,23.1.17,11.55c.05,1.92,0,3.86.13,5.77l.12,2.86c.05,1,.17,1.91.24,2.86a94,94,0,0,0,47.66,73.36,92.48,92.48,0,0,0,43,11.75,95.71,95.71,0,0,0,22.22-2.12,91.56,91.56,0,0,0,39.45-19.54,91.19,91.19,0,0,0,25.66-35.38,93.06,93.06,0,0,0,5.68-21.12c.24-1.81.43-3.63.6-5.44l.16-2.73c.07-.91.11-1.82.1-2.73.08-3.55,0-7.54-.09-11.36l-.36-23.1-5.72-369.57a11.45,11.45,0,0,1,22.89-.36Z"/><circle class="cls-4" cx="453.99" cy="378.5" r="18.35"/><circle class="cls-4" cx="453.99" cy="329.33" r="14.11"/><circle class="cls-4" cx="453.99" cy="287.04" r="11.47"/><circle class="cls-4" cx="701.17" cy="378.5" r="18.35"/><circle class="cls-4" cx="701.17" cy="329.33" r="14.11"/><circle class="cls-4" cx="701.17" cy="287.04" r="11.47"/><text class="cls-5" transform="translate(284.5 825.21)">JUNIOR JOY</text></svg>