<?xml version="1.0"?>
<svg width="49.07" height="49.069" xmlns="http://www.w3.org/2000/svg" xmlns:svg="http://www.w3.org/2000/svg" xmlns:xlink="http://www.w3.org/1999/xlink" version="1.1" xml:space="preserve">
 <g class="layer">
  <title>Layer 1</title>
  <use id="svg_14" transform="matrix(0.97566 0 0 1.00634 -0.722825 -0.384106)" x="-23.14" xlink:href="#svg_13" y="0.12"/>
 </g>
 <defs>
  <symbol height="49.07" id="svg_13" version="1.1" width="49.07" xml:space="preserve" xmlns="http://www.w3.org/2000/svg" xmlns:svg="http://www.w3.org/2000/svg">
   <g class="layer">
    <title>Layer 1</title>
    <g id="svg_7">
     <g id="svg_8">
      <ellipse cx="48.53" cy="31.32" id="svg_12" rx="2.5" ry="1"/>
      <circle cx="41.74" cy="25.2" id="svg_11" r="2.25"/>
      <circle cx="55.33" cy="25.2" id="svg_10" r="2.25"/>
      <path d="m72.23,38.79c-0.28,-0.96 -0.55,-1.86 -0.61,-2.49c-0.28,-3.17 -0.14,-12.85 -0.14,-12.95c0,-12.45 -10.28,-22.59 -22.92,-22.59c-12.63,0 -22.92,10.13 -22.92,22.61c0.01,0.09 0.33,9.83 0.01,13.01c-0.07,0.64 -0.38,1.56 -0.7,2.54c-0.63,1.87 -1.27,3.8 -0.77,5.07c0.52,1.31 3.05,2.59 4.2,2.83c4.63,0.94 11.88,1.48 19.89,1.48c0,0 0,0 0,0c8.14,0 15.55,-0.55 20.33,-1.5c1.18,-0.24 3.69,-1.48 4.25,-2.8c0.55,-1.28 -0.04,-3.28 -0.62,-5.21zm-9.31,-7.71c-2.04,5.91 -7.7,10.17 -14.38,10.18c-6.69,-0.01 -12.36,-4.27 -14.39,-10.2c-0.01,0.01 -0.03,0.02 -0.05,0.02c0,0 0,-0.01 -0.01,-0.02c-0.26,0.13 -0.54,0.2 -0.84,0.2c-1.23,-0.02 -2.21,-1.15 -2.21,-2.56c0,-1.4 0.98,-2.54 2.21,-2.56c0.01,0 0.02,0 0.02,0c0.35,0.59 0.74,1.15 1.18,1.69c-0.35,-1.21 -0.56,-2.45 -0.61,-3.69c1.14,-1.16 2.14,-3.02 2.68,-5.25c0.24,-0.99 0.36,-1.96 0.38,-2.87c1.16,1.75 2.53,3.51 3.69,4.09c1.59,0.81 4.29,1.2 8.24,1.2c0,0 0,0 0,0c4.49,0 9.53,-0.53 12.2,-0.85c0.56,1.53 1.34,2.81 2.21,3.69c-0.06,1.23 -0.27,2.47 -0.62,3.68c0.44,-0.54 0.84,-1.1 1.18,-1.69c1.22,0.04 2.18,1.17 2.18,2.56c0,1.4 -0.98,2.54 -2.21,2.56c-0.28,0 -0.55,-0.06 -0.79,-0.18c0,0.01 -0.01,0.02 -0.01,0.02c-0.02,-0.01 -0.04,-0.01 -0.05,-0.02z" id="svg_9"/>
     </g>
    </g>
   </g>
  </symbol>
 </defs>
</svg>