<svg id="Layer_1" data-name="Layer 1" xmlns="http://www.w3.org/2000/svg" viewBox="0 0 1133.63 1111.32"><defs><style>.cls-1{fill:#b3cc23;}.cls-2{fill:#8736aa;}.cls-2,.cls-3{fill-rule:evenodd;}.cls-3{fill:#45a529;}.cls-4{font-size:142.69px;font-family:AdobeArabic-Regular, Adobe Arabic;}</style></defs><path class="cls-1" d="M519.94,226.42h0A170.28,170.28,0,0,1,690.22,396.7v0a0,0,0,0,1,0,0h0A170.28,170.28,0,0,1,519.94,226.42v0A0,0,0,0,1,519.94,226.42Z" transform="translate(812.63 959.73) rotate(-135)"/><path class="cls-2" d="M516.72,596l-4.07,5.12c-41.72-14.78-88.35-41.68-121.47-80C355.62,480,335.59,425.68,326,394.65s-8.64-38.81-5.66-40,8,4,16.41,20.41S357,418.92,373,444.57s36.23,49.45,59.19,63.49,48.69,18.31,74.39,22.59c-11.35-6.6-22.71-13.21-37.78-25.11s-33.9-29.19-43.52-44.07a59.45,59.45,0,0,1-10.14-33.88c-.06-6.57.29-7.15,5.58-2.45a212.46,212.46,0,0,0,35.95,27.17c20.41,12.41,51,27.21,82.32,41.09,19.76,8.77,39.83,17.15,58.23,26.64-6.41,3.68-12.56,7.54-18.32,11.65C553.12,550,534.61,573.42,516.72,596Z"/><path class="cls-3" d="M884.15,394.65c-9.55,31-29.58,85.33-65.18,126.5s-86.7,69.13-130.59,83.06a258,258,0,0,1-83.29,12.4c-8.67-.15-16.63-.71-23.85-1.48-26.55-2.87-43-8.36-59.43-13.89,17.94-22.67,35.84-45.34,60.89-63.15a227.67,227.67,0,0,1,22.39-13.89c20.46-11.23,43.48-20.78,66.09-30.8,31.34-13.88,61.89-28.68,82.3-41.09a210.92,210.92,0,0,0,36-27.17c5.3-4.7,5.64-4.12,5.6,2.45a59.83,59.83,0,0,1-10.13,33.88c-9.65,14.88-28.46,32.13-43.54,44.07s-26.45,18.51-37.76,25.11c25.7-4.28,51.41-8.59,74.36-22.59s43.2-37.85,59.19-63.49S865,391.45,873.38,375s13.45-21.67,16.44-20.41S893.7,363.6,884.15,394.65Z"/><path class="cls-1" d="M654.95,321.68h0A111.42,111.42,0,0,1,766.36,433.1v0a0,0,0,0,1,0,0h0A111.42,111.42,0,0,1,654.95,321.68v0A0,0,0,0,1,654.95,321.68Z" transform="translate(333.27 1088.05) rotate(-90)"/><path class="cls-1" d="M555.22,321.68h0a0,0,0,0,1,0,0v0A111.42,111.42,0,0,1,443.8,433.1h0a0,0,0,0,1,0,0v0A111.42,111.42,0,0,1,555.22,321.68Z" transform="translate(122.12 876.9) rotate(-90)"/><text class="cls-4" transform="translate(313.79 768.1)">JUNIOR JOY</text></svg>